<?xml version="1.0" encoding="utf-8"?>
<!-- Generator: Adobe Illustrator 20.1.0, SVG Export Plug-In . SVG Version: 6.00 Build 0)  -->
<svg version="1.1" id="Layer_1" xmlns="http://www.w3.org/2000/svg" x="0px" y="0px"
	 viewBox="0 0 1600 855.2" style="enable-background:new 0 0 1600 855.2;" xml:space="preserve">
<style type="text/css">
	.st0{fill:#007BFF;}
	.st1{fill:none;stroke:#007BFF;stroke-width:0.9443;stroke-miterlimit:10;}
	.st2{opacity:0.12;fill:#007BFF;enable-background:new    ;}
	.st3{fill:none;stroke:#007BFF;stroke-width:4;stroke-linecap:round;stroke-miterlimit:10;}
	.st4{fill:none;stroke:#007BFF;stroke-miterlimit:10;}
	.st5{fill:#082E51;}
</style>
<path class="st0" d="M0,0"/>
<path class="st1" d="M0,0"/>
<path pointer-events="none" class="st2" d="M800.8,161.5c11.5,0,19.6-7.9,19.6-16.9c0-8.4-7.6-16.9-19.9-16.9
	c-8.8,0-19.2,6.1-19.2,17.4C781.3,153.4,789.6,161.5,800.8,161.5z M776.5,307.9v-97.7c-20-8.2-37.6-27.9-37.6-50.3
	c0-31.7,27.7-56.7,62-56.7c34.9,0,62.7,24.8,62.7,57.5c0,19.9-16.8,39.8-38.3,49.6v22.8l-18.1,16.6l22.6,20.2v1l-20.3,18.6
	l19.1,17.6l-27.4,24.4L776.5,307.9z"/>
<g>
	<path pointer-events="none" class="st3" d="M459.1,579h126.1"/>
	<path class="st3" d="M580.7,562.5l11.6,11.6c2.4,2.4,2.4,6.2,0,8.6l-11.7,11.6"/>
</g>
<g>
	<path pointer-events="none" class="st3" d="M800.6,352v126.1"/>
	<path class="st3" d="M817.1,473.6l-11.6,11.6c-2.4,2.4-6.2,2.4-8.6,0l-11.6-11.7"/>
</g>
<g>
	<path pointer-events="none" class="st3" d="M1008.3,579h126.1"/>
	<path class="st3" d="M1129.9,562.5l11.6,11.6c2.4,2.4,2.4,6.2,0,8.6l-11.7,11.6"/>
</g>
<path class="st4" d="M421.8,652.2H83.4c-17.4,0-31.5-14.1-31.5-31.5v-96.2c0-17.4,14.1-31.5,31.5-31.5h338.5
	c17.4,0,31.5,14.1,31.5,31.5v96.2C453.4,638.1,439.3,652.2,421.8,652.2z"/>
<g>
	<g>
		<path class="st5" d="M98.1,571.2l2.3,7.2h0.8l1.6-12.1h3.4l-2.3,16.3H99l-2.6-7.9h-0.8l-2.6,7.9h-5l-2.3-16.3h3.5l1.7,12.1h0.8
			l2.4-7.2H98.1z"/>
		<path class="st5" d="M124.7,574.8h-12c0.1,3.3,1.6,5.2,4.6,5.2c2,0,3.1-0.8,3.6-2.1h3.7c-0.6,3-3,5.2-7.3,5.2
			c-5.1,0-8.1-3.6-8.1-8.7c0-5.1,3-8.4,8-8.4c4.9,0,7.5,3.4,7.6,7.6L124.7,574.8L124.7,574.8z M112.9,572.1h8.2
			c-0.2-1.8-1.5-3.3-3.9-3.3C114.6,568.8,113.3,570.2,112.9,572.1z"/>
		<path class="st5" d="M132.4,559.3v23.3h-3.6v-23.3H132.4z"/>
		<path class="st5" d="M151.6,577.4c-0.5,3.4-3.2,5.6-7.2,5.6c-5.1,0-8.1-3.6-8.1-8.6s3-8.5,8.1-8.5c4,0,6.6,2.2,7,5.4h-3.6
			c-0.5-1.4-1.5-2.3-3.4-2.3c-3.2,0-4.5,2.5-4.5,5.4c0,3,1.3,5.5,4.5,5.5c2,0,3.2-0.9,3.6-2.6L151.6,577.4L151.6,577.4z"/>
		<path class="st5" d="M171,574.5c0,5-3.1,8.6-8.2,8.6s-8.2-3.6-8.2-8.6s3.1-8.5,8.2-8.5S171,569.5,171,574.5z M167.4,574.5
			c0-2.8-1.4-5.5-4.6-5.5s-4.6,2.6-4.6,5.5s1.4,5.5,4.6,5.5S167.4,577.4,167.4,574.5z"/>
		<path class="st5" d="M198.4,572.2v10.4h-3.6v-9.8c0-2.4-0.8-3.7-2.8-3.7c-2.3,0-3.5,1.8-3.5,4.2v9.3h-3.6v-9.8
			c0-2.4-0.9-3.7-2.8-3.7c-2.4,0-3.5,2.1-3.5,4.6v8.9H175v-16.3h3.5v1.5h0.8c0.8-1.2,2.1-1.9,4.1-1.9s3.4,0.7,4.2,2h0.8
			c1-1.3,2.5-2,4.5-2C196.7,565.9,198.4,568.4,198.4,572.2z"/>
		<path class="st5" d="M217.8,574.8h-12c0.1,3.3,1.6,5.2,4.6,5.2c2,0,3.1-0.8,3.6-2.1h3.7c-0.6,3-3,5.2-7.3,5.2
			c-5.1,0-8.1-3.6-8.1-8.7c0-5.1,3-8.4,8-8.4c4.9,0,7.5,3.4,7.6,7.6v1.2H217.8z M205.9,572.1h8.2c-0.2-1.8-1.5-3.3-3.9-3.3
			C207.6,568.8,206.4,570.2,205.9,572.1z"/>
		<path class="st5" d="M239.1,566.3v3.1h-3.8v7.9c0,1.4,0.7,2.1,2.5,2.1h1.3v3.1h-1.4c-3.6,0-6-1.1-6-4.8v-8.4H229v-3.1h2.6v-4.7
			h3.6v4.7h3.9V566.3z"/>
		<path class="st5" d="M258.7,574.5c0,5-3.1,8.6-8.2,8.6s-8.2-3.6-8.2-8.6s3.1-8.5,8.2-8.5S258.7,569.5,258.7,574.5z M255.1,574.5
			c0-2.8-1.4-5.5-4.6-5.5s-4.6,2.6-4.6,5.5s1.4,5.5,4.6,5.5S255.1,577.4,255.1,574.5z"/>
		<path class="st5" d="M283.1,582.6v-9.5c0-2.6-1.2-4-3.6-4c-2.6,0-4.2,2.2-4.2,4.8v8.7h-3.6v-23.3h3.6v8.5h0.8c0.9-1.2,2.5-2,4.6-2
			c4,0,6,2.5,6,6.5v10.2L283.1,582.6L283.1,582.6z"/>
		<path class="st5" d="M293.1,589l3.4-8l-6.9-14.7h3.8l4.5,9.8h0.8l4.1-9.8h3.7l-9.8,22.7H293.1z"/>
		<path class="st5" d="M313.1,566.3v1.6h0.8c0.9-1.1,2.4-2,4.8-2c4.4,0,7,3.7,7,8.5c0,5-2.7,8.6-7,8.6c-2.4,0-3.8-0.8-4.7-2h-0.8v8
			h-3.6v-22.7L313.1,566.3L313.1,566.3z M313.1,574.5c0,2.9,1.3,5.5,4.5,5.5c3,0,4.4-2.3,4.4-5.5c0-3.1-1.5-5.5-4.4-5.5
			C314.4,569,313.1,571.6,313.1,574.5z"/>
		<path class="st5" d="M344.3,574.8h-12c0.1,3.3,1.6,5.2,4.6,5.2c2,0,3.1-0.8,3.6-2.1h3.7c-0.6,3-3,5.2-7.3,5.2
			c-5.1,0-8.1-3.6-8.1-8.7c0-5.1,3-8.4,8-8.4c4.9,0,7.5,3.4,7.6,7.6v1.2H344.3z M332.5,572.1h8.2c-0.2-1.8-1.5-3.3-3.9-3.3
			C334.2,568.8,332.9,570.2,332.5,572.1z"/>
		<path class="st5" d="M358.5,569.7H357c-3.3,0-5.1,1.9-5.1,5.3v7.6h-3.6v-16.3h3.5v1.9h0.8c0.7-0.9,2-1.9,4.5-1.9h1.4L358.5,569.7
			L358.5,569.7z"/>
		<path class="st5" d="M371,570.7c-0.2-1.4-1.5-1.8-3.2-1.8c-1.8,0-2.9,0.5-2.9,1.7c0,1.1,0.7,1.4,2.1,1.6l3.2,0.5c3,0.5,5,2,5,5.1
			c0,2.7-2.4,5.2-7,5.2c-4.8,0-7.1-2.1-7.5-5.3h3.6c0.3,1.7,1.6,2.3,3.8,2.3c2.1,0,3.4-0.6,3.4-2.1c0-1.2-0.8-1.8-2.7-2.2l-3.4-0.6
			c-2.4-0.4-4.2-1.7-4.2-4.3c0-2.8,2.1-5,6.7-5c4,0,6.3,1.9,6.7,4.8L371,570.7L371,570.7z"/>
		<path class="st5" d="M390.6,582.6l-4.2-8.2h-0.8l-3.1,3.5v4.7h-3.6v-23.3h3.6v14.2l6.8-7.2h4.1l-4.7,5.1l5.7,11.2H390.6z"/>
		<path class="st5" d="M397.3,562.8v-3.5h3.7v3.5H397.3z M401,582.6h-3.6v-16.3h3.6V582.6z"/>
		<path class="st5" d="M409.7,559.3v23.3H406v-23.3H409.7z"/>
		<path class="st5" d="M418.3,559.3v23.3h-3.6v-23.3H418.3z"/>
	</g>
</g>
<path class="st4" d="M970.5,652.2H632c-17.4,0-31.5-14.1-31.5-31.5v-96.2c0-17.4,14.1-31.5,31.5-31.5h338.5
	c17.4,0,31.5,14.1,31.5,31.5v96.2C1002,638.1,987.9,652.2,970.5,652.2z"/>
<g>
	<path class="st5" d="M655.4,579.1v3.5h-16.8v-22.8H655v3.5h-12.6v5.9h10v3.4h-10v6.6h13V579.1z"/>
	<path class="st5" d="M670.8,582.6v-9.5c0-2.7-1.2-4-3.6-4c-2.6,0-4.2,2.2-4.2,4.8v8.7h-3.6v-16.3h3.5v1.6h0.8c0.9-1.2,2.5-2,4.7-2
		c4.1,0,6.1,2.5,6.1,6.5v10.2H670.8z"/>
	<path class="st5" d="M693.4,577.4c-0.5,3.4-3.2,5.6-7.2,5.6c-5.1,0-8.1-3.6-8.1-8.6s3-8.5,8.1-8.5c4,0,6.6,2.2,7,5.4h-3.6
		c-0.5-1.4-1.5-2.3-3.4-2.3c-3.2,0-4.5,2.5-4.5,5.4c0,3,1.3,5.5,4.5,5.5c2,0,3.2-0.9,3.6-2.6L693.4,577.4L693.4,577.4z"/>
	<path class="st5" d="M707.5,569.7H706c-3.3,0-5.1,1.9-5.1,5.3v7.6h-3.6v-16.3h3.5v1.9h0.8c0.7-0.9,2-1.9,4.5-1.9h1.4L707.5,569.7
		L707.5,569.7z"/>
	<path class="st5" d="M713.6,589l3.4-8l-6.9-14.7h3.8l4.5,9.8h0.8l4.1-9.8h3.7l-9.8,22.7H713.6z"/>
	<path class="st5" d="M733.6,566.3v1.6h0.8c0.9-1.1,2.4-2,4.8-2c4.4,0,7,3.7,7,8.5c0,5-2.7,8.6-7,8.6c-2.4,0-3.8-0.8-4.7-2h-0.8v8
		h-3.6v-22.7L733.6,566.3L733.6,566.3z M733.6,574.5c0,2.9,1.3,5.5,4.5,5.5c3,0,4.4-2.3,4.4-5.5c0-3.1-1.5-5.5-4.4-5.5
		C734.9,569,733.6,571.6,733.6,574.5z"/>
	<path class="st5" d="M758.6,566.3v3.1h-3.8v7.9c0,1.4,0.7,2.1,2.5,2.1h1.3v3.1h-1.4c-3.6,0-6-1.1-6-4.8v-8.4h-2.6v-3.1h2.6v-4.7
		h3.6v4.7h3.8V566.3z"/>
	<path class="st5" d="M762.8,562.8v-3.5h3.7v3.5H762.8z M766.5,582.6h-3.6v-16.3h3.6V582.6z"/>
	<path class="st5" d="M787,574.5c0,5-3.1,8.6-8.2,8.6s-8.2-3.6-8.2-8.6s3.1-8.5,8.2-8.5S787,569.5,787,574.5z M783.4,574.5
		c0-2.8-1.4-5.5-4.6-5.5s-4.6,2.6-4.6,5.5s1.4,5.5,4.6,5.5S783.4,577.4,783.4,574.5z"/>
	<path class="st5" d="M802.5,582.6v-9.5c0-2.7-1.2-4-3.6-4c-2.6,0-4.2,2.2-4.2,4.8v8.7h-3.6v-16.3h3.5v1.6h0.8c0.9-1.2,2.5-2,4.7-2
		c4.1,0,6.1,2.5,6.1,6.5v10.2H802.5z"/>
	<path class="st5" d="M830,581.1h-0.8c-1,1.2-2.5,1.9-4.8,1.9c-3.7,0-5.8-2.5-5.8-5.3c0-2.6,1.8-5.5,6.5-5.5h4.8v-0.5
		c0-1.8-1-3-3.4-3c-2.1,0-3.1,0.8-3.3,2.1h-3.6c0.2-3.1,2.9-4.9,6.7-4.9c4.2,0,7,1.9,7,5.9v10.8H830V581.1z M829.8,576v-1.2h-4.2
		c-2.3,0-3.5,1-3.5,2.7s1.2,2.6,3.3,2.6C828,580.1,829.8,578.3,829.8,576z"/>
	<path class="st5" d="M841.7,559.3v23.3h-3.6v-23.3H841.7z"/>
	<path class="st5" d="M861.8,566.3v15.5c0,4.6-3.1,7.5-7.9,7.5c-4.3,0-7.2-1.8-7.6-5.2h3.6c0.4,1.6,1.8,2.3,4,2.3
		c3.1,0,4.3-1.9,4.3-4.8v-1.1h-0.8c-0.8,1.1-2.2,2-4.5,2c-4.4,0-7.2-3.5-7.2-8.3s2.8-8.3,7.2-8.3c2.4,0,3.9,1,4.7,2h0.8v-1.6
		L861.8,566.3L861.8,566.3z M858.4,574.2c0-2.8-1.5-5.2-4.5-5.2c-2.8,0-4.4,2.1-4.4,5.2c0,3,1.6,5.2,4.4,5.2
		C856.9,579.4,858.4,577,858.4,574.2z"/>
	<path class="st5" d="M882.3,574.5c0,5-3.1,8.6-8.2,8.6c-5.1,0-8.2-3.6-8.2-8.6s3.1-8.5,8.2-8.5
		C879.2,565.9,882.3,569.5,882.3,574.5z M878.7,574.5c0-2.8-1.4-5.5-4.6-5.5s-4.6,2.6-4.6,5.5s1.4,5.5,4.6,5.5
		S878.7,577.4,878.7,574.5z"/>
	<path class="st5" d="M896.5,569.7H895c-3.3,0-5.1,1.9-5.1,5.3v7.6h-3.6v-16.3h3.5v1.9h0.8c0.7-0.9,2-1.9,4.5-1.9h1.4L896.5,569.7
		L896.5,569.7z"/>
	<path class="st5" d="M899.9,562.8v-3.5h3.7v3.5H899.9z M903.6,582.6H900v-16.3h3.6V582.6z"/>
	<path class="st5" d="M917,566.3v3.1h-3.8v7.9c0,1.4,0.7,2.1,2.5,2.1h1.3v3.1h-1.4c-3.6,0-6-1.1-6-4.8v-8.4H907v-3.1h2.6v-4.7h3.6
		v4.7h3.8V566.3z"/>
	<path class="st5" d="M932.7,582.6v-9.5c0-2.6-1.2-4-3.6-4c-2.6,0-4.2,2.2-4.2,4.8v8.7h-3.6v-23.3h3.6v8.5h0.8c0.9-1.2,2.5-2,4.6-2
		c4,0,6,2.5,6,6.5v10.2L932.7,582.6L932.7,582.6z"/>
	<path class="st5" d="M964.5,572.2v10.4h-3.6v-9.8c0-2.4-0.8-3.7-2.8-3.7c-2.3,0-3.5,1.8-3.5,4.2v9.3H951v-9.8
		c0-2.4-0.9-3.7-2.8-3.7c-2.4,0-3.5,2.1-3.5,4.6v8.9h-3.6v-16.3h3.5v1.5h0.8c0.8-1.2,2.1-1.9,4.1-1.9s3.4,0.7,4.2,2h0.8
		c1-1.3,2.5-2,4.5-2C962.8,565.9,964.5,568.4,964.5,572.2z"/>
</g>
<g>
	<path class="st5" d="M786.9,74.4l-4.2-8.2h-0.8l-3.1,3.5v4.7h-3.6V51.1h3.6v14.2l6.8-7.2h4.1l-4.7,5.1l5.7,11.2
		C790.7,74.4,786.9,74.4,786.9,74.4z"/>
	<path class="st5" d="M808.2,66.5h-12c0.1,3.3,1.6,5.2,4.6,5.2c2,0,3.1-0.8,3.6-2.1h3.7c-0.6,3-3,5.2-7.3,5.2
		c-5.1,0-8.1-3.6-8.1-8.7s3-8.4,8-8.4c4.9,0,7.5,3.4,7.6,7.6L808.2,66.5L808.2,66.5z M796.4,63.8h8.2c-0.2-1.8-1.5-3.3-3.9-3.3
		C798.1,60.5,796.8,62,796.4,63.8z"/>
	<path class="st5" d="M813.9,80.8l3.4-8l-6.9-14.7h3.8l4.5,9.8h0.8l4.1-9.8h3.7l-9.8,22.7H813.9z"/>
</g>
<g>
	<path class="st5" d="M172.9,685.9c0,6.7-3.8,11.8-10.9,11.8c-7.1,0-10.9-5.2-10.9-11.8c0-6.7,3.8-11.8,10.9-11.8
		C169,674.1,172.9,679.3,172.9,685.9z M169,685.9c0-4.5-2.1-8.4-7-8.4s-7,3.8-7,8.4s2.1,8.4,7,8.4C166.8,694.3,169,690.5,169,685.9z
		"/>
	<path class="st5" d="M187.2,684.4h-1.5c-3.3,0-5.1,1.9-5.1,5.3v7.6H177V681h3.5v1.9h0.8c0.7-0.9,2-1.9,4.5-1.9h1.4V684.4z"/>
	<path class="st5" d="M190.6,677.6v-3.5h3.7v3.5H190.6z M194.2,697.4h-3.6v-16.3h3.6V697.4z"/>
	<path class="st5" d="M214.4,681.1v15.5c0,4.6-3.1,7.5-7.9,7.5c-4.3,0-7.2-1.8-7.6-5.2h3.6c0.4,1.6,1.8,2.3,4,2.3
		c3.1,0,4.3-1.9,4.3-4.8v-1.1H210c-0.8,1.1-2.2,2-4.5,2c-4.4,0-7.2-3.5-7.2-8.3s2.8-8.3,7.2-8.3c2.4,0,3.9,1,4.7,2h0.8v-1.6
		L214.4,681.1L214.4,681.1z M210.9,689c0-2.8-1.5-5.2-4.5-5.2c-2.8,0-4.4,2.1-4.4,5.2c0,3,1.6,5.2,4.4,5.2
		C209.4,694.1,210.9,691.7,210.9,689z"/>
	<path class="st5" d="M219.4,677.6v-3.5h3.7v3.5H219.4z M223.1,697.4h-3.6v-16.3h3.6V697.4z"/>
	<path class="st5" d="M239.6,697.4v-9.5c0-2.7-1.2-4-3.6-4c-2.6,0-4.2,2.2-4.2,4.8v8.7h-3.6v-16.3h3.5v1.6h0.8c0.9-1.2,2.5-2,4.7-2
		c4.1,0,6.1,2.5,6.1,6.5v10.2H239.6z"/>
	<path class="st5" d="M258.1,695.9h-0.8c-1,1.2-2.5,1.9-4.8,1.9c-3.7,0-5.8-2.5-5.8-5.3c0-2.6,1.8-5.5,6.5-5.5h4.8v-0.5
		c0-1.8-1-3-3.4-3c-2.1,0-3.1,0.8-3.3,2.1h-3.6c0.2-3.1,2.9-4.9,6.7-4.9c4.2,0,7,1.9,7,5.9v10.8H258v-1.5H258.1z M258,690.8v-1.2
		h-4.2c-2.3,0-3.5,1-3.5,2.7s1.2,2.6,3.3,2.6C256.1,694.8,258,693,258,690.8z"/>
	<path class="st5" d="M269.9,674.1v23.3h-3.6v-23.3H269.9z"/>
	<path class="st5" d="M292.1,681.1v3.1h-3.8v7.9c0,1.4,0.7,2.1,2.5,2.1h1.3v3.1h-1.4c-3.6,0-6-1.1-6-4.8v-8.4h-2.6V681h2.6v-4.7h3.6
		v4.7h3.8V681.1z"/>
	<path class="st5" d="M310.9,689.5h-12c0.1,3.3,1.6,5.2,4.6,5.2c2,0,3.1-0.8,3.6-2.1h3.7c-0.6,3-3,5.2-7.3,5.2
		c-5.1,0-8.1-3.6-8.1-8.7c0-5.1,3-8.4,8-8.4c4.9,0,7.5,3.4,7.6,7.6v1.2H310.9z M299,686.8h8.2c-0.2-1.8-1.5-3.3-3.9-3.3
		C300.7,683.5,299.4,685,299,686.8z"/>
	<path class="st5" d="M321.9,691h-1.2l-3.7,6.4h-3.9l4.9-8.4l-4.4-7.9h3.8l3.3,6h1.2l3.4-6h3.7l-4.4,7.8l4.8,8.4h-3.9L321.9,691z"/>
	<path class="st5" d="M341.4,681.1v3.1h-3.8v7.9c0,1.4,0.7,2.1,2.5,2.1h1.3v3.1H340c-3.6,0-6-1.1-6-4.8v-8.4h-2.6V681h2.6v-4.7h3.6
		v4.7h3.8V681.1z"/>
</g>
<g>
	<path class="st5" d="M1286.7,690.5c-0.8,4.3-4.1,7.3-9.3,7.3c-6.9,0-10.8-5-10.8-11.8c0-6.9,3.9-11.8,10.8-11.8
		c4.9,0,8.2,2.7,9,6.8h-4c-0.7-2.2-2.3-3.3-5-3.3c-4.7,0-6.9,3.8-6.9,8.4s2.1,8.4,6.8,8.4c2.8,0,4.7-1.4,5.3-3.8h4.1V690.5z"/>
	<path class="st5" d="M1291.7,703.8l3.4-8l-6.9-14.7h3.8l4.5,9.8h0.8l4.1-9.8h3.7l-9.8,22.7H1291.7z"/>
	<path class="st5" d="M1311.7,681.1v1.6h0.8c0.9-1.1,2.4-2,4.8-2c4.4,0,7,3.7,7,8.5c0,5-2.7,8.6-7,8.6c-2.4,0-3.8-0.8-4.7-2h-0.8v8
		h-3.6v-22.7L1311.7,681.1L1311.7,681.1z M1311.7,689.2c0,2.9,1.3,5.5,4.5,5.5c3,0,4.4-2.3,4.4-5.5c0-3.1-1.5-5.5-4.4-5.5
		C1313.1,683.7,1311.7,686.4,1311.7,689.2z"/>
	<path class="st5" d="M1339.8,697.4v-9.5c0-2.6-1.2-4-3.6-4c-2.6,0-4.2,2.2-4.2,4.8v8.7h-3.6v-23.3h3.6v8.5h0.8c0.9-1.2,2.5-2,4.6-2
		c4,0,6,2.5,6,6.5v10.2L1339.8,697.4L1339.8,697.4z"/>
	<path class="st5" d="M1362.8,689.5h-12c0.1,3.3,1.6,5.2,4.6,5.2c2,0,3.1-0.8,3.6-2.1h3.7c-0.6,3-3,5.2-7.3,5.2
		c-5.1,0-8.1-3.6-8.1-8.7c0-5.1,3-8.4,8-8.4c4.9,0,7.5,3.4,7.6,7.6L1362.8,689.5L1362.8,689.5z M1351,686.8h8.2
		c-0.2-1.8-1.5-3.3-3.9-3.3C1352.7,683.5,1351.4,685,1351,686.8z"/>
	<path class="st5" d="M1377,684.4h-1.5c-3.3,0-5.1,1.9-5.1,5.3v7.6h-3.6V681h3.5v1.9h0.8c0.7-0.9,2-1.9,4.5-1.9h1.4L1377,684.4
		L1377,684.4z"/>
	<path class="st5" d="M1389.9,681.1v3.1h-3.8v7.9c0,1.4,0.7,2.1,2.5,2.1h1.3v3.1h-1.4c-3.6,0-6-1.1-6-4.8v-8.4h-2.6V681h2.6v-4.7
		h3.6v4.7h3.8V681.1z"/>
	<path class="st5" d="M1408.7,689.5h-12c0.1,3.3,1.6,5.2,4.6,5.2c2,0,3.1-0.8,3.6-2.1h3.7c-0.6,3-3,5.2-7.3,5.2
		c-5.1,0-8.1-3.6-8.1-8.7c0-5.1,3-8.4,8-8.4c4.9,0,7.5,3.4,7.6,7.6L1408.7,689.5L1408.7,689.5z M1396.8,686.8h8.2
		c-0.2-1.8-1.5-3.3-3.9-3.3C1398.5,683.5,1397.2,685,1396.8,686.8z"/>
	<path class="st5" d="M1419.7,691h-1.2l-3.7,6.4h-3.9l4.9-8.4l-4.4-7.9h3.8l3.3,6h1.2l3.4-6h3.7l-4.4,7.8l4.8,8.4h-3.9L1419.7,691z"
		/>
	<path class="st5" d="M1439.2,681.1v3.1h-3.8v7.9c0,1.4,0.7,2.1,2.5,2.1h1.3v3.1h-1.4c-3.6,0-6-1.1-6-4.8v-8.4h-2.6V681h2.6v-4.7
		h3.6v4.7h3.8V681.1z"/>
</g>
<g>
	<path class="st4" d="M1519.4,652.2h-338.5c-17.4,0-31.5-14.1-31.5-31.5v-96.2c0-17.4,14.1-31.5,31.5-31.5h338.5
		c17.4,0,31.5,14.1,31.5,31.5v96.2C1551,638.1,1536.9,652.2,1519.4,652.2z"/>
	<g>
		<path class="st5" d="M1192.8,574.5c0,4.9-2.6,8.6-7,8.6c-2.4,0-3.9-0.9-4.8-2h-0.8v1.6h-3.5v-23.3h3.6v8.5h0.8
			c0.9-1.2,2.3-2,4.7-2C1190.1,565.9,1192.8,569.6,1192.8,574.5z M1189.2,574.5c0-3.1-1.5-5.5-4.4-5.5c-3.2,0-4.5,2.6-4.5,5.5
			s1.3,5.5,4.5,5.5C1187.7,580,1189.2,577.6,1189.2,574.5z"/>
		<path class="st5" d="M1193,589v-3.1h1.5c2,0,2.7-1.1,2.7-2.9v-16.7h3.6v17c0,4-2.3,5.7-5.8,5.7H1193z M1197.2,562.8v-3.5h3.7v3.5
			H1197.2z"/>
		<path class="st5" d="M1221,566.3V589h-3.6v-8h-0.8c-0.9,1.2-2.3,2-4.7,2c-4.4,0-7-3.6-7-8.6c0-4.9,2.6-8.5,7-8.5
			c2.4,0,3.9,0.9,4.8,2h0.8v-1.6L1221,566.3L1221,566.3z M1208.5,574.5c0,3.2,1.5,5.5,4.4,5.5c3.2,0,4.5-2.6,4.5-5.5
			c0-2.8-1.3-5.5-4.5-5.5C1210,569,1208.5,571.3,1208.5,574.5z"/>
		<path class="st5" d="M1237.5,582.6v-9.5c0-2.6-1.2-4-3.6-4c-2.6,0-4.2,2.2-4.2,4.8v8.7h-3.6v-23.3h3.6v8.5h0.8
			c0.9-1.2,2.5-2,4.6-2c4,0,6,2.5,6,6.5v10.2L1237.5,582.6L1237.5,582.6z"/>
		<path class="st5" d="M1254.2,566.3v3.1h-3.8v7.9c0,1.4,0.7,2.1,2.5,2.1h1.3v3.1h-1.4c-3.6,0-6-1.1-6-4.8v-8.4h-2.6v-3.1h2.6v-4.7
			h3.6v4.7h3.8V566.3z"/>
		<path class="st5" d="M1268.7,569.7h-1.5c-3.3,0-5.1,1.9-5.1,5.3v7.6h-3.6v-16.3h3.5v1.9h0.8c0.7-0.9,2-1.9,4.5-1.9h1.4
			L1268.7,569.7L1268.7,569.7z"/>
		<path class="st5" d="M1268.3,589v-3.1h1.5c2,0,2.7-1.1,2.7-2.9v-16.7h3.6v17c0,4-2.3,5.7-5.8,5.7H1268.3z M1272.4,562.8v-3.5h3.7
			v3.5H1272.4z"/>
		<path class="st5" d="M1291.6,589l3.4-8l-6.9-14.7h3.8l4.5,9.8h0.8l4.1-9.8h3.7l-9.8,22.7H1291.6z"/>
		<path class="st5" d="M1316.5,566.3v3.1h-3.8v7.9c0,1.4,0.7,2.1,2.5,2.1h1.3v3.1h-1.4c-3.6,0-6-1.1-6-4.8v-8.4h-2.6v-3.1h2.6v-4.7
			h3.6v4.7h3.8V566.3z"/>
		<path class="st5" d="M1353,572.2v10.4h-3.6v-9.8c0-2.4-0.8-3.7-2.8-3.7c-2.3,0-3.5,1.8-3.5,4.2v9.3h-3.6v-9.8
			c0-2.4-0.9-3.7-2.8-3.7c-2.4,0-3.5,2.1-3.5,4.6v8.9h-3.6v-16.3h3.5v1.5h0.8c0.8-1.2,2.1-1.9,4.1-1.9s3.4,0.7,4.2,2h0.8
			c1-1.3,2.5-2,4.5-2C1351.3,565.9,1353,568.4,1353,572.2z"/>
		<path class="st5" d="M1368.5,567.9h0.8v-8.5h3.6v23.3h-3.5V581h-0.8c-0.9,1.1-2.4,2-4.8,2c-4.4,0-7-3.7-7-8.6c0-4.9,2.7-8.5,7-8.5
			C1366.3,565.9,1367.7,566.7,1368.5,567.9z M1369.4,574.5c0-2.8-1.3-5.5-4.5-5.5c-3,0-4.4,2.3-4.4,5.5s1.5,5.5,4.4,5.5
			C1368.1,580,1369.4,577.4,1369.4,574.5z"/>
		<path class="st5" d="M1381.3,566.3v9.5c0,2.7,1.2,4,3.6,4c2.6,0,4.2-2.2,4.2-4.8v-8.7h3.6v16.3h-3.5V581h-0.8
			c-0.9,1.2-2.5,2-4.7,2c-4.1,0-6.1-2.5-6.1-6.5v-10.2H1381.3z"/>
		<path class="st5" d="M1394,589v-3.1h1.5c2,0,2.7-1.1,2.7-2.9v-16.7h3.6v17c0,4-2.3,5.7-5.8,5.7H1394z M1398.1,562.8v-3.5h3.7v3.5
			H1398.1z"/>
		<path class="st5" d="M1417.9,571.2l2.3,7.2h0.8l1.6-12.1h3.4l-2.3,16.3h-4.9l-2.6-7.9h-0.8l-2.6,7.9h-5l-2.3-16.3h3.5l1.7,12.1
			h0.8l2.4-7.2H1417.9z"/>
		<path class="st5" d="M1437.3,576.2h-1.2l-3.7,6.4h-3.9l4.9-8.4l-4.4-7.9h3.8l3.3,6h1.2l3.4-6h3.7l-4.4,7.8l4.8,8.4h-3.9
			L1437.3,576.2z"/>
		<path class="st5" d="M1451.9,566.3v1.6h0.8c0.9-1.1,2.4-2,4.8-2c4.4,0,7,3.7,7,8.5c0,5-2.7,8.6-7,8.6c-2.4,0-3.8-0.8-4.7-2h-0.8v8
			h-3.6v-22.7L1451.9,566.3L1451.9,566.3z M1452,574.5c0,2.9,1.3,5.5,4.5,5.5c3,0,4.4-2.3,4.4-5.5c0-3.1-1.5-5.5-4.4-5.5
			C1453.3,569,1452,571.6,1452,574.5z"/>
		<path class="st5" d="M1480,582.6v-9.5c0-2.7-1.2-4-3.6-4c-2.6,0-4.2,2.2-4.2,4.8v8.7h-3.6v-16.3h3.5v1.6h0.8c0.9-1.2,2.5-2,4.7-2
			c4.1,0,6.1,2.5,6.1,6.5v10.2H1480z"/>
		<path class="st5" d="M1503.5,566.3V589h-3.6v-8h-0.8c-0.9,1.2-2.3,2-4.7,2c-4.4,0-7-3.6-7-8.6c0-4.9,2.6-8.5,7-8.5
			c2.4,0,3.9,0.9,4.8,2h0.8v-1.6L1503.5,566.3L1503.5,566.3z M1491.1,574.5c0,3.2,1.5,5.5,4.4,5.5c3.2,0,4.5-2.6,4.5-5.5
			c0-2.8-1.3-5.5-4.5-5.5C1492.5,569,1491.1,571.3,1491.1,574.5z"/>
		<path class="st5" d="M1523.7,566.3V589h-3.6v-8h-0.8c-0.9,1.2-2.3,2-4.7,2c-4.4,0-7-3.6-7-8.6c0-4.9,2.6-8.5,7-8.5
			c2.4,0,3.9,0.9,4.8,2h0.8v-1.6L1523.7,566.3L1523.7,566.3z M1511.2,574.5c0,3.2,1.5,5.5,4.4,5.5c3.2,0,4.5-2.6,4.5-5.5
			c0-2.8-1.3-5.5-4.5-5.5C1512.7,569,1511.2,571.3,1511.2,574.5z"/>
	</g>
</g>
</svg>
